{"title":"The Boondocks S04E01 Pretty Boy Flizzy (1920x1080) [Phr0stY].mkv","uid":10017747,"size":847406026,"categoryP":"video","categoryS":"hd___tv_shows","magnet":"?xt=urn:btih:4db66448a40dc4099bec66f0b42506b22da8166c&amp;dn=The+Boondocks+S04E01+Pretty+Boy+Flizzy+%281920x1080%29+%5BPhr0stY%5D.mkv&amp;tr=udp%3A%2F%2Ftracker.openbittorrent.com%3A80&amp;tr=udp%3A%2F%2Fopen.demonii.com%3A1337&amp;tr=udp%3A%2F%2Ftracker.coppersurfer.tk%3A6969&amp;tr=udp%3A%2F%2Fexodus.desync.com%3A6969","seeders":1,"leechers":0,"uploader":"frostyon420","files":-1,"time":1398172397,"description":"\nALWAYS HD never RE-ENCODED! over 600 torrents and counting\n\nJoin me on SuprBay for updates on my torrents, or to make torrent requests (if i can access the content online). Please Let me know if need to fix something or if i need to re-seed any of my torrents.  &lt;a href=&quot;\nhttps://forum.suprbay.org/showthread.php?tid=369&quot; rel=&quot;nofollow&quot; target=&quot;_NEW&quot;&gt;\nhttps://forum.suprbay.org/showthread.php?tid=369&lt;/a&gt; \n\nMy RSS feed &lt;a href=&quot;\nhttp://rss.thepiratebay.se/user/178e8d96586bbd0dcb5c2729df9a5c4d&quot; rel=&quot;nofollow&quot; target=&quot;_NEW&quot;&gt;\nhttp://rss.thepiratebay.se/user/178e8d96586bbd0dcb5c2729df9a5c4d&lt;/a&gt;\n\n\n[Itunes-rip]\n\nUNCENSORED \n\nComplete name                            : C:UsersPhr0stYDesktopThe Boondocks S04E01 Pretty Boy Flizzy (1920x1080) [Phr0stY].mkv\nFormat                                   : Matroska\nFormat version                           : Version 4 / Version 2\nFile size                                : 808 MiB\nDuration                                 : 22mn 35s\nOverall bit rate                         : 5 003 Kbps\nEncoded date                             : UTC 2014-04-22 11:05:12\nWriting application                      : mkvmerge v6.8.0 ('Theme for Great Cities') 64bit built on Mar  2 2014 21:34:26\nWriting library                          : libebml v1.3.0 + libmatroska v1.4.1\n\nVideo\nID                                       : 1\nFormat                                   : AVC\nFormat/Info                              : Advanced Video Codec\nFormat profile                           : &lt;a class=&quot;__cf_email__&quot; href=&quot;/cdn-cgi/l/email-protection&quot; data-cfemail=&quot;e6ae8f818ea6aad2c8d6&quot;&gt;[email&amp;#160;protected]&lt;/a&gt;&lt;script cf-hash='f9e31' type=&quot;text/javascript&quot;&gt;\n/* &lt;![CDATA[ */!function(){try{var t=&quot;currentScript&quot;in document?document.currentScript:function(){for(var t=document.getElementsByTagName(&quot;script&quot;),e=t.length;e--;)if(t[e].getAttribute(&quot;cf-hash&quot;))return t[e]}();if(t&amp;&amp;t.previousSibling){var e,r,n,i,c=t.previousSibling,a=c.getAttribute(&quot;data-cfemail&quot;);if(a){for(e=&quot;&quot;,r=parseInt(a.substr(0,2),16),n=2;a.length-n;n+=2)i=parseInt(a.substr(n,2),16)^r,e+=String.fromCharCode(i);e=document.createTextNode(e),c.parentNode.replaceChild(e,c)}}}catch(u){}}();/* ]]&gt; */&lt;/script&gt;\nFormat settings, CABAC                   : Yes\nFormat settings, ReFrames                : 4 frames\nCodec ID                                 : V_MPEG4/ISO/AVC\nDuration                                 : 22mn 35s\nBit rate                                 : 4 519 Kbps\nWidth                                    : 1 916 pixels\nHeight                                   : 1 076 pixels\nDisplay aspect ratio                     : 16:9\nFrame rate mode                          : Constant\nFrame rate                               : 23.976 fps\nColor space                              : YUV\nChroma subsampling                       : 4:2:0\nBit depth                                : 8 bits\nScan type                                : Progressive\nBits/(Pixel*Frame)                       : 0.091\nStream size                              : 730 MiB (90%)\nLanguage                                 : English\nDefault                                  : Yes\nForced                                   : No\nColor primaries                          : BT.709\nTransfer characteristics                 : BT.709\nMatrix coefficients                      : BT.709\n\nAudio\nID                                       : 2\nFormat                                   : AC-3\nFormat/Info                              : Audio Coding 3\nMode extension                           : CM (complete main)\nFormat settings, Endianness              : Big\nCodec ID                                 : A_AC3\nDuration                                 : 22mn 35s\nBit rate mode                            : Constant\nBit rate                                 : 384 Kbps\nChannel(s)                               : 6 channels\nChannel positions                        : Front: L C R, Side: L R, LFE\nSampling rate                            : 48.0 KHz\nBit depth                                : 16 bits\nCompression mode                         : Lossy\nStream size                              : 62.0 MiB (8%)\nLanguage                                 : English\nDefault                                  : Yes\nForced                                   : No\n\nText\nID                                       : 3\nFormat                                   : ASS\nCodec ID                                 : S_TEXT/ASS\nCodec ID/Info                            : Advanced Sub Station Alpha\nCompression mode                         : Lossless\nDefault                                  : Yes\nForced                                   : No\n\n","torrent":{"xt":"urn:btih:4db66448a40dc4099bec66f0b42506b22da8166c","amp;dn":"The+Boondocks+S04E01+Pretty+Boy+Flizzy+%281920x1080%29+%5BPhr0stY%5D.mkv","amp;tr":["udp%3A%2F%2Ftracker.openbittorrent.com%3A80","udp%3A%2F%2Fopen.demonii.com%3A1337","udp%3A%2F%2Ftracker.coppersurfer.tk%3A6969","udp%3A%2F%2Fexodus.desync.com%3A6969"],"infoHash":"4db66448a40dc4099bec66f0b42506b22da8166c","infoHashBuffer":{"type":"Buffer","data":[77,182,100,72,164,13,196,9,155,236,102,240,180,37,6,178,45,168,22,108]},"announce":[],"urlList":[]}}